<svg width="108" height="30" viewBox="0 0 108 30" fill="none" xmlns="http://www.w3.org/2000/svg">
<path d="M1.18129 24.275C1.18129 25.1915 1.609 25.6803 2.52552 25.6803C3.4013 25.6803 3.86974 25.1915 3.86974 24.275V23.8065H3.91048C4.39929 25.0693 5.60094 25.6803 7.047 25.6803C9.53179 25.6803 11.7111 23.8676 11.7111 20.0183C11.7111 17.1669 10.265 14.4988 7.12847 14.4988C5.80461 14.4988 4.78626 15.0487 4.19562 16.0059H4.15488V11.9733C4.15488 10.9956 3.56424 10.4865 2.66809 10.4865C1.77193 10.4865 1.18129 10.9956 1.18129 11.9733V24.275ZM8.73747 20.1201C8.73747 21.8717 7.96352 23.3177 6.37489 23.3585C4.64369 23.3585 3.99194 21.8106 3.99194 20.1201C3.99194 18.5926 4.56222 16.8003 6.37489 16.8206C8.26903 16.8206 8.73747 18.7351 8.73747 20.1201ZM23.5103 17.5538C23.5103 15.4153 21.5347 14.4988 18.6833 14.4988C15.6282 14.4988 13.9581 16.0059 13.9581 17.1872C13.9581 17.7982 14.4673 18.3278 15.2209 18.3278C16.4022 18.3278 16.4633 16.6984 18.6629 16.6984C19.6609 16.6984 20.5367 17.065 20.5367 17.9204C20.5367 18.7759 19.9664 18.9388 19.2536 19.0203L17.4409 19.2239C15.1598 19.4887 13.286 20.1812 13.286 22.6456C13.286 24.5194 14.9561 25.6803 16.6466 25.6803C18.2148 25.6803 19.5591 25.2322 20.72 23.9491C20.7607 24.8656 21.1884 25.6803 22.4716 25.6803C23.1844 25.6803 23.8158 25.2119 23.8158 24.5397C23.8158 24.0713 23.5103 23.7862 23.5103 22.5438V17.5538ZM20.5367 21.5662C20.5367 22.666 19.5387 23.7251 17.9093 23.7251C16.891 23.7251 16.2596 23.1752 16.2596 22.503C16.2596 21.6069 16.9317 21.2199 18.1741 21.0366L19.2536 20.8737C19.5998 20.8126 20.2108 20.7107 20.5367 20.4052V21.5662ZM26.2461 24.1935C26.2461 24.9878 26.572 25.6803 27.7329 25.6803C28.8939 25.6803 29.2197 24.9878 29.2197 24.1935V20.7311C29.2197 18.2667 29.8715 17.4316 31.0731 17.4316H31.6027C32.3359 17.4316 33.0691 17.0447 33.0691 15.9448C33.0691 15.1098 32.3766 14.4988 31.4397 14.4988C29.9937 14.4988 29.3216 15.7819 28.9753 17.0243H28.9346V15.8837C28.9346 14.9876 28.3439 14.4988 27.5904 14.4988C26.8368 14.4988 26.2461 14.9876 26.2461 15.8837V24.1935ZM34.3772 24.1935C34.3772 25.1711 34.9679 25.6803 35.864 25.6803C36.7602 25.6803 37.3508 25.1711 37.3508 24.1935V21.9328L38.3895 21.0162L41.2002 24.9878C41.4242 25.3137 41.8112 25.6803 42.5444 25.6803C43.3387 25.6803 43.9497 24.9878 43.9497 24.2342C43.9497 23.7454 43.7461 23.4196 43.6442 23.277L40.5484 19.1221L42.7481 16.8206C43.0128 16.5355 43.1962 16.3726 43.1962 15.843C43.1962 15.0894 42.4629 14.4988 41.7908 14.4988C41.3427 14.4988 40.9558 14.7432 40.6503 15.0691L37.3508 18.7351V11.9733C37.3508 10.9956 36.7602 10.4865 35.864 10.4865C34.9679 10.4865 34.3772 10.9956 34.3772 11.9733V24.1935Z" fill="#263238"/>
<path d="M45.2204 17.9001C45.2204 22.3401 47.3793 25.7618 52.634 25.7618C57.6443 25.7618 60.0476 22.0346 60.0476 17.9001C60.0476 13.6026 57.4406 10.405 52.634 10.405C47.8274 10.405 45.2204 13.6026 45.2204 17.9001ZM48.5606 17.9001C48.5606 15.0894 49.9048 13.0935 52.634 13.0935C55.3632 13.0935 56.7074 15.0894 56.7074 17.9001C56.7074 20.7107 55.6687 23.0733 52.634 23.0733C49.4975 23.0733 48.5606 20.7107 48.5606 17.9001ZM72.215 15.9856C72.215 15.1913 71.8891 14.4988 70.7282 14.4988C69.5673 14.4988 69.2414 15.1913 69.2414 15.9856V20.894C69.2414 22.3808 68.0194 23.2363 66.9807 23.2363C65.6975 23.2363 65.1069 22.3808 65.1069 21.1792V15.9856C65.1069 15.1913 64.781 14.4988 63.6201 14.4988C62.4592 14.4988 62.1333 15.1913 62.1333 15.9856V21.7698C62.1333 24.7841 64.0885 25.6803 65.8808 25.6803C67.5713 25.6803 68.6508 24.9064 69.4858 23.8065H69.5265V24.1935C69.5265 25.0897 69.9339 25.6803 70.8708 25.6803C71.8077 25.6803 72.215 25.0897 72.215 24.1935V15.9856ZM75.3582 23.0326C75.3582 24.7841 76.2544 25.6803 78.4133 25.6803C79.839 25.6803 80.5722 25.2119 80.5722 24.3564C80.5722 23.7251 80.1852 23.3585 79.5335 23.3585H79.1058C78.5762 23.3585 78.3318 23.114 78.3318 22.666V16.7188H79.228C80.1037 16.7188 80.5722 16.454 80.5722 15.7412C80.5722 15.0283 80.1037 14.7636 79.228 14.7636H78.3318V12.9509C78.3318 11.9733 77.7412 11.4641 76.845 11.4641C75.9489 11.4641 75.3582 11.9733 75.3582 12.9509V14.7636H74.849C74.014 14.7636 73.6677 15.0894 73.6677 15.7412C73.6677 16.3929 74.014 16.7188 74.849 16.7188H75.3582V23.0326Z" fill="#263238"/>
<path d="M81.5374 10.5839C81.7589 10.5172 82.162 10.4561 82.5232 10.4264L82.6831 10.7892C82.7431 10.9326 83.2219 13.5416 83.505 14.1639C83.5166 14.1896 83.5335 14.2165 83.5526 14.244C83.609 14.9406 83.6378 15.6451 83.5495 15.8586C83.4132 16.188 84.3188 15.7526 84.8803 15.2127C84.8884 15.2173 84.8964 15.2217 84.9044 15.2261C84.9035 15.4482 84.9091 15.6697 84.9223 15.8847C84.8465 16.0219 84.7989 16.1774 84.7906 16.3446L82.127 21.9559C82.0982 22.5286 82.5309 23.0202 83.1028 23.0646C83.1306 23.0669 83.1584 23.0678 83.1858 23.0678C83.7227 23.0678 84.181 22.6623 84.2381 22.1198L87.1156 20.315C88.0589 20.9906 89.1923 18.1314 90.3205 18.9363C90.4 18.7477 90.5405 21.996 90.6926 21.8035C91.1518 21.2225 91.7443 21.1053 92.3593 21.2372C91.9679 21.3015 91.6274 21.4742 91.3705 21.7941C89.7334 23.8329 92.5943 22.2758 93.1718 22.6682C93.5421 22.9195 91.2547 22.9521 89.9727 23.4033C89.2543 23.656 89.1197 24.2628 89.2925 24.5725C89.6754 25.2581 95.1775 25.4368 97.5328 25.1568C98.1409 25.0845 98.5395 24.9815 98.5861 24.849C98.6515 24.6625 98.6306 24.1998 98.5683 23.6366C100.207 24.1803 102.369 24.1429 103.39 24.2755C104.699 24.4456 108.935 24.1075 106.918 23.6366C104.902 23.1658 106.765 23.2542 104.062 22.5953C102.632 22.2467 101.049 21.3166 99.3533 21.2871C99.4594 16.7739 95.0417 13.9697 89.9633 9.5471L90.2171 9.10063L88.6292 8.51391C88.432 8.8294 88.0589 9.12276 87.8096 9.3062C87.4146 9.59713 86.1192 9.26163 86.3318 8.73859C86.6496 9.01633 87.4033 9.13292 87.6884 8.92295C88.0277 8.6731 88.5974 8.22056 88.6385 7.78424C88.6486 7.67584 88.6274 7.5685 88.5604 7.46556C88.224 6.94783 87.5098 6.06428 86.3574 6.17237C86.3574 6.17237 86.3733 6.23271 86.3946 6.3314C85.9828 5.98756 85.5671 5.71816 85.2167 5.64675C84.026 5.40403 83.1584 5.31641 83.1584 5.31641L82.1182 6.15736L78.9952 6.00864C78.9448 5.96149 78.8795 5.92965 78.8052 5.92465C78.6343 5.91312 78.4865 6.04229 78.475 6.21315C78.467 6.3311 78.527 6.43677 78.6204 6.49559L78.6345 6.874C78.6345 6.874 79.4409 7.99573 79.8307 8.06835C80.2204 8.14112 81.7421 8.63808 81.842 8.87701C81.8462 8.88702 81.8496 8.8952 81.8537 8.90475C80.9873 8.94402 79.0983 9.10699 78.5052 9.783C78.4001 9.90292 78.4121 10.0853 78.532 10.1905C78.6521 10.2957 78.8345 10.2836 78.9397 10.1638C78.9811 10.1165 79.0397 10.0726 79.1061 10.0306C79.2174 10.2149 79.3581 10.4187 79.3581 10.4187C79.3581 10.4187 81.0917 10.718 81.5374 10.5839ZM83.09 6.54774C83.2815 6.56063 83.4263 6.72618 83.4134 6.91766C83.4004 7.10899 83.2347 7.25362 83.0435 7.24073C82.852 7.22785 82.7072 7.06229 82.7203 6.87082C82.733 6.67949 82.8987 6.53486 83.09 6.54774Z" fill="#263238"/>
<path d="M77.0832 6.02077L71.9946 3.20409L71.6159 3.62994L76.9153 6.22714L77.0832 6.02077Z" fill="#263238"/>
<path d="M77.9777 5.42004L75.0807 0.377274L74.5363 0.545969L77.7271 5.50974L77.9777 5.42004Z" fill="#263238"/>
<path d="M70.5514 7.62785L76.4533 7.55017L76.5097 7.29048L70.6968 7.0766L70.5514 7.62785Z" fill="#263238"/>
</svg>
