<svg width="224" height="224" viewBox="0 0 224 224" fill="none" xmlns="http://www.w3.org/2000/svg">
<g filter="url(#filter0_d_95_57)">
<circle cx="112" cy="108" r="108" fill="#263238"/>
<circle cx="112" cy="108" r="107.5" stroke="#FFB800"/>
</g>
<path d="M71.1667 158C68.6204 158 66.457 157.108 64.6767 155.323C62.8922 153.543 62 151.38 62 148.833V103L74.8333 66.3333C75.4444 64.5 76.5404 63.0231 78.1211 61.9028C79.6978 60.7824 81.4537 60.2222 83.3889 60.2222H98.6667V54.1111C98.6667 52.3796 99.2533 50.9272 100.427 49.7539C101.596 48.5846 103.046 48 104.778 48H129.222C130.954 48 132.406 48.5846 133.579 49.7539C134.749 50.9272 135.333 52.3796 135.333 54.1111V60.2222H150.611C152.546 60.2222 154.304 60.7824 155.885 61.9028C157.462 63.0231 158.556 64.5 159.167 66.3333L172 103V148.833C172 151.38 171.108 153.543 169.323 155.323C167.543 157.108 165.38 158 162.833 158C160.287 158 158.124 157.108 156.343 155.323C154.559 153.543 153.667 151.38 153.667 148.833V145.778H80.3333V148.833C80.3333 151.38 79.4411 153.543 77.6567 155.323C75.8763 157.108 73.713 158 71.1667 158ZM79.1111 90.7778H154.889L148.472 72.4444H85.5278L79.1111 90.7778ZM89.5 127.444C92.0463 127.444 94.2096 126.552 95.99 124.768C97.7744 122.987 98.6667 120.824 98.6667 118.278C98.6667 115.731 97.7744 113.568 95.99 111.788C94.2096 110.003 92.0463 109.111 89.5 109.111C86.9537 109.111 84.7904 110.003 83.01 111.788C81.2256 113.568 80.3333 115.731 80.3333 118.278C80.3333 120.824 81.2256 122.987 83.01 124.768C84.7904 126.552 86.9537 127.444 89.5 127.444ZM144.5 127.444C147.046 127.444 149.21 126.552 150.99 124.768C152.774 122.987 153.667 120.824 153.667 118.278C153.667 115.731 152.774 113.568 150.99 111.788C149.21 110.003 147.046 109.111 144.5 109.111C141.954 109.111 139.79 110.003 138.01 111.788C136.226 113.568 135.333 115.731 135.333 118.278C135.333 120.824 136.226 122.987 138.01 124.768C139.79 126.552 141.954 127.444 144.5 127.444Z" fill="#FFB800"/>
<defs>
<filter id="filter0_d_95_57" x="0" y="0" width="224" height="224" filterUnits="userSpaceOnUse" color-interpolation-filters="sRGB">
<feFlood flood-opacity="0" result="BackgroundImageFix"/>
<feColorMatrix in="SourceAlpha" type="matrix" values="0 0 0 0 0 0 0 0 0 0 0 0 0 0 0 0 0 0 127 0" result="hardAlpha"/>
<feOffset dy="4"/>
<feGaussianBlur stdDeviation="2"/>
<feComposite in2="hardAlpha" operator="out"/>
<feColorMatrix type="matrix" values="0 0 0 0 0 0 0 0 0 0 0 0 0 0 0 0 0 0 0.25 0"/>
<feBlend mode="normal" in2="BackgroundImageFix" result="effect1_dropShadow_95_57"/>
<feBlend mode="normal" in="SourceGraphic" in2="effect1_dropShadow_95_57" result="shape"/>
</filter>
</defs>
</svg>
