<svg width="224" height="224" viewBox="0 0 224 224" fill="none" xmlns="http://www.w3.org/2000/svg">
<g filter="url(#filter0_d_95_49)">
<path d="M220 108C220 167.647 171.647 216 112 216C52.3532 216 4 167.647 4 108C4 48.3532 52.3532 0 112 0C171.647 0 220 48.3532 220 108Z" fill="#263238"/>
<path d="M219.5 108C219.5 167.371 171.371 215.5 112 215.5C52.6294 215.5 4.5 167.371 4.5 108C4.5 48.6294 52.6294 0.5 112 0.5C171.371 0.5 219.5 48.6294 219.5 108Z" stroke="#FFB800"/>
</g>
<path d="M104.709 163.178C106.623 164.518 108.991 165.042 111.292 164.636C113.593 164.23 115.638 162.926 116.978 161.012C117.209 160.684 117.372 160.314 117.459 159.922C117.546 159.531 117.555 159.126 117.485 158.732C117.416 158.337 117.268 157.96 117.052 157.622C116.836 157.284 116.556 156.992 116.227 156.763L109.171 149.33L125.273 160.6C125.888 161.032 126.582 161.339 127.316 161.502C128.05 161.665 128.809 161.682 129.549 161.551C130.289 161.42 130.996 161.145 131.63 160.74C132.263 160.335 132.81 159.81 133.24 159.193C133.671 158.577 133.976 157.883 134.138 157.149C134.301 156.416 134.317 155.658 134.186 154.918C134.056 154.178 133.781 153.471 133.377 152.838C132.973 152.204 132.448 151.657 131.833 151.226L118.118 138.621L138.618 152.973C139.233 153.405 139.927 153.711 140.661 153.874C141.394 154.038 142.153 154.054 142.893 153.924C143.634 153.793 144.341 153.517 144.974 153.113C145.608 152.708 146.155 152.182 146.585 151.565C147.015 150.95 147.321 150.255 147.483 149.522C147.645 148.788 147.662 148.03 147.531 147.29C147.4 146.55 147.125 145.844 146.721 145.21C146.317 144.577 145.793 144.029 145.177 143.598L127.001 128.065L149.365 143.72C149.98 144.153 150.674 144.459 151.408 144.622C152.142 144.785 152.9 144.802 153.641 144.671C154.381 144.541 155.088 144.265 155.721 143.86C156.355 143.456 156.902 142.93 157.332 142.313C157.763 141.697 158.068 141.003 158.23 140.27C158.393 139.536 158.409 138.778 158.278 138.038C158.148 137.298 157.872 136.591 157.469 135.958C157.065 135.324 156.54 134.777 155.925 134.346L60.1068 90.1937L46.8844 111.25C45.4008 113.538 45.8051 116.639 47.937 118.462L77.6312 143.903C78.9851 145.063 80.3924 146.157 81.853 147.179L104.709 163.178Z" fill="#263238"/>
<path d="M155.717 130.46L112.613 99.3738L112.388 99.0687L112.59 98.7636L112.792 98.5615L116.049 100.35C119.703 102.715 128.051 106.208 134.378 106.208C138.707 106.208 141.3 104.587 142.075 101.414C142.31 100.012 141.98 98.5729 141.156 97.4133C140.333 96.2538 139.083 95.468 137.681 95.2282C133.854 94.657 130.204 93.2352 126.999 91.0674L124.882 89.6448C122.502 88.0392 119.806 86.22 117.815 85.0454C115.336 83.5428 112.64 82.8143 109.566 82.8143C105.005 82.8143 100.371 84.4238 95.8935 85.9798L91.0652 87.6426C88.9817 88.3446 86.7956 88.6939 84.597 88.6761C78.7085 88.6761 72.9459 86.4412 67.3739 84.2826L66.8133 84.0614C65.6665 83.6223 64.4028 83.5952 63.2383 83.9848C62.0737 84.3743 61.0807 85.1564 60.429 86.1972L47.2066 107.261C46.5334 108.31 46.2619 109.568 46.442 110.802C46.622 112.036 47.2416 113.163 48.1867 113.977L77.8771 139.422C79.2195 140.57 80.6306 141.665 82.0723 142.672L105.584 159.132C106.405 159.707 107.331 160.115 108.309 160.332C109.287 160.549 110.298 160.571 111.285 160.397C112.272 160.223 113.214 159.856 114.059 159.318C114.904 158.78 115.635 158.08 116.21 157.26C116.672 156.596 116.853 155.776 116.713 154.979C116.573 154.183 116.123 153.474 115.462 153.007L108.471 148.114C108.289 147.986 108.135 147.821 108.019 147.63C107.903 147.439 107.828 147.226 107.799 147.004C107.769 146.783 107.786 146.558 107.848 146.343C107.91 146.128 108.016 145.929 108.159 145.757C108.417 145.447 108.783 145.245 109.184 145.192C109.585 145.139 109.991 145.239 110.321 145.471L125.496 156.093C126.656 156.905 128.092 157.223 129.486 156.977C130.881 156.731 132.121 155.941 132.933 154.781C133.745 153.62 134.063 152.185 133.817 150.79C133.571 149.396 132.781 148.156 131.621 147.344L117.419 137.405C117.236 137.276 117.082 137.111 116.966 136.92C116.85 136.729 116.775 136.516 116.746 136.295C116.716 136.074 116.733 135.848 116.795 135.634C116.857 135.419 116.963 135.22 117.106 135.048C117.365 134.738 117.731 134.537 118.131 134.484C118.532 134.431 118.937 134.53 119.268 134.762L138.841 148.465C139.415 148.867 140.063 149.152 140.748 149.304C141.432 149.456 142.14 149.471 142.831 149.349C143.521 149.227 144.181 148.971 144.773 148.594C145.364 148.217 145.875 147.727 146.277 147.153C146.68 146.579 146.965 145.931 147.116 145.246C147.268 144.561 147.284 143.853 147.162 143.163C147.04 142.472 146.783 141.812 146.406 141.221C146.03 140.63 145.54 140.118 144.966 139.716L126.4 126.723C126.216 126.595 126.06 126.431 125.943 126.24C125.827 126.048 125.751 125.835 125.722 125.613C125.693 125.391 125.711 125.165 125.774 124.95C125.838 124.735 125.946 124.536 126.091 124.366C126.323 124.089 126.649 123.91 127.007 123.864C127.364 123.817 127.726 123.906 128.021 124.114L149.592 139.213C150.166 139.615 150.815 139.9 151.5 140.052C152.184 140.203 152.892 140.218 153.583 140.096C154.274 139.974 154.934 139.718 155.525 139.34C156.117 138.963 156.628 138.474 157.03 137.899C157.433 137.324 157.718 136.676 157.869 135.991C158.021 135.306 158.036 134.598 157.914 133.907C157.792 133.217 157.535 132.557 157.158 131.965C156.781 131.374 156.291 130.862 155.717 130.46Z" fill="#FFB800"/>
<path d="M105.122 154.018C104.855 155.036 104.333 155.917 103.639 156.615L99.8098 160.413C99.1085 161.123 98.2331 161.636 97.2714 161.901C96.3096 162.166 95.2951 162.174 94.3294 161.924C93.3544 161.67 92.4637 161.163 91.7474 160.454C91.0312 159.746 90.5148 158.861 90.2504 157.888C89.9861 156.916 89.9832 155.891 90.2421 154.918C90.5009 153.944 91.0123 153.056 91.7245 152.343L95.5536 148.545C96.2549 147.835 97.1302 147.322 98.092 147.057C99.0538 146.792 100.068 146.785 101.034 147.035C102.501 147.42 103.756 148.372 104.522 149.681C105.289 150.99 105.504 152.55 105.122 154.018ZM64.9098 135.25L70.6419 129.541C71.2973 128.886 71.784 128.082 72.06 127.198C72.3361 126.314 72.3933 125.376 72.2267 124.464C72.0602 123.553 71.6748 122.696 71.1038 121.967C70.5328 121.237 69.7932 120.657 68.9486 120.277C67.8905 119.801 66.7125 119.659 65.5717 119.871C64.431 120.082 63.3818 120.636 62.5643 121.459L56.8322 127.169C56.1769 127.823 55.6904 128.628 55.4146 129.512C55.1388 130.396 55.082 131.335 55.2489 132.246C55.4159 133.157 55.8016 134.014 56.373 134.743C56.9444 135.473 57.6844 136.052 58.5293 136.432C59.587 136.907 60.7641 137.048 61.904 136.837C63.0438 136.625 64.0923 136.072 64.9098 135.25ZM84.7567 135.448C85.3183 134.924 85.7685 134.292 86.0805 133.59C86.3925 132.888 86.5599 132.13 86.5727 131.362C86.5855 130.594 86.4435 129.831 86.1551 129.119C85.8667 128.407 85.4379 127.76 84.8941 127.218C84.3504 126.675 83.7029 126.247 82.9903 125.96C82.2778 125.673 81.5146 125.533 80.7465 125.547C79.9784 125.561 79.2211 125.73 78.5197 126.043C77.8182 126.357 77.1871 126.808 76.6639 127.371L65.2149 138.804C64.6533 139.329 64.2031 139.961 63.8911 140.663C63.5791 141.365 63.4117 142.122 63.3989 142.891C63.3861 143.659 63.5281 144.421 63.8165 145.134C64.1049 145.846 64.5337 146.492 65.0775 147.035C65.6212 147.578 66.2687 148.005 66.9813 148.292C67.6939 148.579 68.457 148.72 69.2251 148.706C69.9932 148.691 70.7505 148.523 71.452 148.209C72.1534 147.896 72.7845 147.445 73.3077 146.882L84.7567 135.448ZM93.3378 146.89C94.1098 146.116 94.6441 145.137 94.8773 144.07C95.1106 143.002 95.033 141.889 94.6539 140.864C94.2747 139.839 93.6098 138.944 92.7379 138.285C91.8659 137.626 90.8234 137.231 89.7337 137.145C88.9109 137.083 88.0845 137.201 87.3119 137.491C86.5393 137.781 85.8391 138.236 85.2602 138.823L77.6135 146.432C76.8403 147.206 76.305 148.184 76.071 149.253C75.8371 150.321 75.9144 151.434 76.2936 152.46C76.6729 153.486 77.3383 154.382 78.211 155.041C79.0837 155.7 80.1271 156.096 81.2175 156.18C82.9528 156.317 84.5508 155.642 85.6911 154.502L93.3378 146.89ZM156.475 131.112L158.866 129.045L132.502 87.6653L85.7064 95.2357C84.9621 95.3613 84.2499 95.6324 83.6104 96.0333C82.9709 96.4343 82.4167 96.9573 81.9793 97.5724C81.5419 98.1876 81.23 98.8828 81.0614 99.6186C80.8927 100.354 80.8706 101.116 80.9963 101.86C83.5058 112.138 103.891 104.503 112.861 99.5681L156.475 131.112Z" fill="#263238"/>
<path d="M105.122 150.204C104.855 151.222 104.333 152.103 103.639 152.801L99.8098 156.599C99.1085 157.309 98.2331 157.822 97.2714 158.087C96.3096 158.352 95.2951 158.36 94.3294 158.11C93.3544 157.856 92.4637 157.349 91.7474 156.64C91.0312 155.932 90.5148 155.047 90.2504 154.074C89.9861 153.102 89.9832 152.077 90.2421 151.104C90.5009 150.13 91.0123 149.242 91.7245 148.529L95.5536 144.731C96.2549 144.021 97.1302 143.508 98.092 143.243C99.0538 142.978 100.068 142.971 101.034 143.221C102.501 143.606 103.756 144.558 104.522 145.867C105.289 147.176 105.504 148.736 105.122 150.204ZM64.9098 131.436L70.6419 125.727C71.2973 125.072 71.784 124.268 72.06 123.384C72.3361 122.5 72.3933 121.562 72.2267 120.65C72.0602 119.739 71.6748 118.882 71.1038 118.153C70.5328 117.423 69.7932 116.843 68.9486 116.463C67.8903 115.988 66.7125 115.847 65.572 116.058C64.4315 116.269 63.3824 116.823 62.5643 117.645L56.8322 123.355C56.1769 124.009 55.6904 124.814 55.4146 125.698C55.1388 126.582 55.082 127.521 55.2489 128.432C55.4159 129.343 55.8016 130.2 56.373 130.929C56.9444 131.659 57.6844 132.238 58.5293 132.618C59.587 133.093 60.7641 133.234 61.904 133.023C63.0438 132.811 64.0923 132.258 64.9098 131.436ZM84.7568 131.634C85.3183 131.11 85.7685 130.478 86.0805 129.776C86.3925 129.074 86.5599 128.316 86.5727 127.548C86.5855 126.78 86.4435 126.017 86.1551 125.305C85.8667 124.593 85.4379 123.946 84.8941 123.404C84.3504 122.861 83.7029 122.433 82.9903 122.146C82.2778 121.859 81.5147 121.719 80.7465 121.733C79.9784 121.747 79.2211 121.916 78.5197 122.229C77.8182 122.543 77.1871 122.994 76.6639 123.557L65.2149 134.99C64.6533 135.515 64.2031 136.147 63.8911 136.849C63.5791 137.551 63.4117 138.308 63.3989 139.077C63.3861 139.845 63.5281 140.607 63.8165 141.32C64.1049 142.032 64.5337 142.678 65.0775 143.221C65.6212 143.764 66.2687 144.191 66.9813 144.478C67.6939 144.765 68.457 144.906 69.2251 144.892C69.9932 144.877 70.7505 144.709 71.452 144.395C72.1534 144.082 72.7845 143.631 73.3077 143.068L84.7568 131.634ZM93.3378 143.076C94.1098 142.302 94.6441 141.323 94.8773 140.256C95.1106 139.188 95.033 138.075 94.6539 137.05C94.2747 136.025 93.6098 135.13 92.7379 134.471C91.8659 133.812 90.8234 133.416 89.7338 133.331C88.9109 133.269 88.0845 133.387 87.3119 133.677C86.5393 133.967 85.8391 134.422 85.2602 135.009L77.6135 142.618C76.8403 143.392 76.305 144.37 76.071 145.439C75.8371 146.507 75.9144 147.62 76.2936 148.646C76.6729 149.672 77.3383 150.568 78.211 151.227C79.0837 151.886 80.1271 152.282 81.2176 152.366C82.9528 152.503 84.5508 151.828 85.6911 150.688L93.3378 143.076ZM175.552 114.64C176.561 113.767 177.221 112.559 177.41 111.238C177.599 109.916 177.303 108.571 176.578 107.451L176.566 107.432L163.344 82.5622C162.646 81.4466 161.581 80.6083 160.333 80.1909C159.085 79.7735 157.731 79.8028 156.502 80.2739C148.905 83.2144 140.583 86.5934 132.505 83.8475L128.318 82.4097C120.889 79.8353 112.811 76.8186 105.435 81.2884C102.785 82.8482 98.8068 85.6094 96.2401 87.3142C93.0691 89.432 89.4743 90.8324 85.7064 91.4178C84.961 91.5412 84.2474 91.8107 83.6066 92.211C82.9659 92.6112 82.4106 93.1343 81.9728 93.75C81.5351 94.3657 81.2234 95.062 81.0558 95.7986C80.8882 96.5353 80.868 97.2979 80.9964 98.0424C83.3342 107.623 101.209 101.505 110.889 96.6351C111.493 96.3318 112.169 96.2001 112.843 96.2546C113.517 96.3091 114.163 96.5476 114.71 96.944L158.889 129.041L175.552 114.64Z" fill="#FFB800"/>
<defs>
<filter id="filter0_d_95_49" x="0" y="0" width="224" height="224" filterUnits="userSpaceOnUse" color-interpolation-filters="sRGB">
<feFlood flood-opacity="0" result="BackgroundImageFix"/>
<feColorMatrix in="SourceAlpha" type="matrix" values="0 0 0 0 0 0 0 0 0 0 0 0 0 0 0 0 0 0 127 0" result="hardAlpha"/>
<feOffset dy="4"/>
<feGaussianBlur stdDeviation="2"/>
<feComposite in2="hardAlpha" operator="out"/>
<feColorMatrix type="matrix" values="0 0 0 0 0 0 0 0 0 0 0 0 0 0 0 0 0 0 0.25 0"/>
<feBlend mode="normal" in2="BackgroundImageFix" result="effect1_dropShadow_95_49"/>
<feBlend mode="normal" in="SourceGraphic" in2="effect1_dropShadow_95_49" result="shape"/>
</filter>
</defs>
</svg>
