<svg width="224" height="224" viewBox="0 0 224 224" fill="none" xmlns="http://www.w3.org/2000/svg">
<g filter="url(#filter0_d_95_51)">
<path d="M220 108C220 167.647 171.647 216 112 216C52.3532 216 4 167.647 4 108C4 48.3532 52.3532 0 112 0C171.647 0 220 48.3532 220 108Z" fill="#263238"/>
<path d="M219.5 108C219.5 167.371 171.371 215.5 112 215.5C52.6294 215.5 4.5 167.371 4.5 108C4.5 48.6294 52.6294 0.5 112 0.5C171.371 0.5 219.5 48.6294 219.5 108Z" stroke="#FFB800"/>
</g>
<path d="M162.46 111.477C161.722 109.368 159.718 107.997 157.345 107.997H119.435C117.009 107.997 115.058 109.368 114.267 111.477L106.727 133.149V162.203C106.727 164.207 108.415 166 110.418 166H113.687C115.691 166 117.273 163.996 117.273 161.993V155.454H159.455V161.993C159.455 163.996 161.089 166 163.093 166H166.309C168.313 166 170 164.207 170 162.203V133.149L162.46 111.477ZM119.435 113.27H157.345L162.776 129.089H114.004L119.435 113.27ZM117.273 144.908C114.373 144.908 112 142.535 112 139.635C112 136.735 114.373 134.362 117.273 134.362C120.173 134.362 122.545 136.735 122.545 139.635C122.545 142.535 120.173 144.908 117.273 144.908ZM159.455 144.908C156.555 144.908 154.182 142.535 154.182 139.635C154.182 136.735 156.555 134.362 159.455 134.362C162.355 134.362 164.727 136.735 164.727 139.635C164.727 142.535 162.355 144.908 159.455 144.908ZM83.8436 121.337L85.6364 134.362L80.1 139.951L70.82 123.183L54 113.85L59.5891 108.155L72.7709 110.106L93.1764 89.6993L54 69.0818L61.4873 61.6468L109.944 72.8256L130.455 52.3135C133.407 49.2288 138.68 49.2288 141.633 52.3135C144.744 55.4246 144.744 60.5395 141.633 63.4924L121.122 84.0044L125.445 102.724H119.435C114.847 102.724 110.893 105.36 109.364 109.631L109.205 109.948L104.407 100.773L83.8436 121.337Z" fill="#FFB800"/>
<defs>
<filter id="filter0_d_95_51" x="0" y="0" width="224" height="224" filterUnits="userSpaceOnUse" color-interpolation-filters="sRGB">
<feFlood flood-opacity="0" result="BackgroundImageFix"/>
<feColorMatrix in="SourceAlpha" type="matrix" values="0 0 0 0 0 0 0 0 0 0 0 0 0 0 0 0 0 0 127 0" result="hardAlpha"/>
<feOffset dy="4"/>
<feGaussianBlur stdDeviation="2"/>
<feComposite in2="hardAlpha" operator="out"/>
<feColorMatrix type="matrix" values="0 0 0 0 0 0 0 0 0 0 0 0 0 0 0 0 0 0 0.25 0"/>
<feBlend mode="normal" in2="BackgroundImageFix" result="effect1_dropShadow_95_51"/>
<feBlend mode="normal" in="SourceGraphic" in2="effect1_dropShadow_95_51" result="shape"/>
</filter>
</defs>
</svg>
