<svg width="183" height="81" viewBox="0 0 183 81" fill="none" xmlns="http://www.w3.org/2000/svg">
<path d="M103.824 0L105.463 5.0446H110.767L106.476 8.16233L108.115 13.2069L103.824 10.0892L99.5329 13.2069L101.172 8.16233L96.8808 5.0446H102.185L103.824 0Z" fill="#FFB800"/>
<path d="M121.264 0.00012207L122.904 5.04472H128.208L123.917 8.16246L125.556 13.2071L121.264 10.0893L116.973 13.2071L118.612 8.16246L114.321 5.04472H119.625L121.264 0.00012207Z" fill="#FFB800"/>
<path d="M138.704 0.00012207L140.343 5.04472H145.647L141.356 8.16246L142.995 13.2071L138.704 10.0893L134.413 13.2071L136.052 8.16246L131.761 5.04472H137.065L138.704 0.00012207Z" fill="#FFB800"/>
<path d="M156.145 0.00012207L157.784 5.04472H163.089L158.797 8.16246L160.437 13.2071L156.145 10.0893L151.854 13.2071L153.493 8.16246L149.202 5.04472H154.506L156.145 0.00012207Z" fill="#FFB800"/>
<path d="M173.585 0L175.224 5.0446H180.528L176.237 8.16233L177.876 13.2069L173.585 10.0892L169.294 13.2069L170.933 8.16233L166.641 5.0446H171.946L173.585 0Z" fill="#FFB800"/>
<path d="M40.999 59.1724H30.6845L11.6067 18.7677V74.5964H13.9313L6.79843 81L0 74.5964H1.99019V0H12.2271L31.3825 40.6374V0H40.999V59.1724Z" fill="black"/>
<path d="M58.3707 11.3226H47.2807V0H58.3707V11.3226ZM57.9054 59.1724H47.9011V16.5962H57.9054V59.1724Z" fill="black"/>
<path d="M76.2331 59.1724H66.2289V0H76.2331V59.1724Z" fill="black"/>
<path d="M105.083 24.9718H95.4661V44.6701C95.4661 45.8076 95.4661 46.8416 95.4661 47.7722C95.4661 48.6511 95.6471 49.5042 96.009 50.3314C96.2158 50.8485 96.526 51.2104 96.9396 51.4172C97.4049 51.5723 98.1546 51.6498 99.1886 51.6498C100.378 51.7015 102.291 51.4689 104.927 50.9519V59.4826C102.291 59.8962 99.8607 60.103 97.6376 60.103C93.6565 60.103 90.6579 59.1207 88.6415 57.156C86.6251 55.1914 85.617 52.5805 85.617 49.3233V24.9718H80.1107V16.5962H85.617V8.37565L95.4661 3.17964V16.5962H105.083V24.9718Z" fill="black"/>
<path d="M134.32 38.0006C134.32 35.9843 134.087 34.0455 133.622 32.1842C133.156 30.2712 132.51 28.6943 131.683 27.4535C130.856 26.2127 129.899 25.3337 128.814 24.8167C127.728 24.248 126.694 23.9637 125.711 23.9637C124.729 23.9637 123.695 24.248 122.609 24.8167C121.524 25.3337 120.541 26.2127 119.662 27.4535C118.887 28.6943 118.266 30.2712 117.801 32.1842C117.336 34.0455 117.103 35.9843 117.103 38.0006C117.103 39.9653 117.336 41.8782 117.801 43.7395C118.266 45.549 118.887 47.1001 119.662 48.3926C120.541 49.6335 121.524 50.5124 122.609 51.0294C123.695 51.5464 124.729 51.8049 125.711 51.8049C126.694 51.8049 127.728 51.5464 128.814 51.0294C129.899 50.5124 130.856 49.6335 131.683 48.3926C132.51 47.1001 133.156 45.549 133.622 43.7395C134.087 41.8782 134.32 39.9653 134.32 38.0006ZM144.479 38.0006C144.479 40.9476 144.04 43.817 143.161 46.6089C142.333 49.3491 141.118 51.7274 139.516 53.7437C137.809 55.8118 135.741 57.3887 133.312 58.4744C130.882 59.5602 128.348 60.103 125.711 60.103C123.075 60.103 120.541 59.5602 118.111 58.4744C115.681 57.3887 113.613 55.8118 111.907 53.7437C110.304 51.7274 109.064 49.3491 108.185 46.6089C107.357 43.817 106.944 40.9476 106.944 38.0006C106.944 35.0019 107.357 32.1325 108.185 29.3923C109.064 26.6004 110.304 24.1963 111.907 22.18C113.613 20.0602 115.681 18.4574 118.111 17.3717C120.541 16.2343 123.075 15.6656 125.711 15.6656C128.348 15.6656 130.882 16.2343 133.312 17.3717C135.741 18.4574 137.809 20.0602 139.516 22.18C141.118 24.1963 142.333 26.6004 143.161 29.3923C144.04 32.1325 144.479 35.0019 144.479 38.0006Z" fill="black"/>
<path d="M182.169 59.1724H172.32V32.8046C172.32 29.961 171.752 27.6862 170.614 25.98C169.839 24.946 168.572 24.429 166.814 24.429C165.315 24.429 163.815 25.282 162.316 26.9882C160.817 28.6943 159.705 31.357 158.981 34.9761C158.774 35.855 158.619 36.7339 158.516 37.6129C158.464 38.4918 158.438 39.5258 158.438 40.715V59.1724H148.667V16.5962H158.438V20.1636C159.421 18.8194 160.765 17.7336 162.471 16.9064C164.177 16.0792 165.754 15.6656 167.202 15.6656C171.958 15.6656 175.629 16.9581 178.214 19.5432C180.851 22.2317 182.169 26.0834 182.169 31.0985V59.1724Z" fill="black"/>
</svg>
