<svg width="138" height="37" viewBox="0 0 138 37" fill="none" xmlns="http://www.w3.org/2000/svg">
<path d="M72.7017 22.2585V17.3324L70.1475 19.8867L72.7017 22.2585Z" fill="#FFB800" stroke="#FFB800" stroke-width="0.364895"/>
<path d="M39.6204 0L40.2215 1.84982H42.1665L40.593 2.99308L41.194 4.8429L39.6204 3.69964L38.0469 4.8429L38.6479 2.99308L37.0744 1.84982H39.0194L39.6204 0Z" fill="#FFB800"/>
<path d="M46.016 0L46.617 1.84982H48.562L46.9885 2.99308L47.5895 4.8429L46.016 3.69964L44.4424 4.8429L45.0434 2.99308L43.4699 1.84982H45.4149L46.016 0Z" fill="#FFB800"/>
<path d="M52.4105 0L53.0115 1.84982H54.9565L53.383 2.99308L53.984 4.8429L52.4105 3.69964L50.8369 4.8429L51.438 2.99308L49.8644 1.84982H51.8094L52.4105 0Z" fill="#FFB800"/>
<path d="M58.806 0L59.407 1.84982H61.3521L59.7785 2.99308L60.3795 4.8429L58.806 3.69964L57.2324 4.8429L57.8335 2.99308L56.2599 1.84982H58.205L58.806 0Z" fill="#FFB800"/>
<path d="M65.2015 0L65.8025 1.84982H67.7476L66.174 2.99308L66.7751 4.8429L65.2015 3.69964L63.6279 4.8429L64.229 2.99308L62.6554 1.84982H64.6005L65.2015 0Z" fill="#FFB800"/>
<path d="M5.92608 27.3672H1L3.37182 29.5566L5.92608 27.3672Z" fill="#FFB800" stroke="#FFB800" stroke-width="0.364895"/>
<path d="M16.58 21.6981H12.7977L5.80199 6.88198V27.354H6.65443L4.03884 29.7022L1.5459 27.354H2.27569V0H6.0295L13.0537 14.9015V0H16.58V21.6981Z" fill="black"/>
<path d="M22.9501 4.15194H18.8834V0H22.9501V4.15194ZM22.7794 21.6981H19.1109V6.08572H22.7794V21.6981Z" fill="black"/>
<path d="M29.5001 21.6981H25.8316V0H29.5001V21.6981Z" fill="black"/>
<path d="M40.079 9.15701H36.5527V16.3802C36.5527 16.7973 36.5527 17.1765 36.5527 17.5178C36.5527 17.8401 36.6191 18.1529 36.7518 18.4562C36.8276 18.6458 36.9414 18.7785 37.093 18.8543C37.2637 18.9112 37.5386 18.9397 37.9177 18.9397C38.3538 18.9586 39.0552 18.8733 40.0221 18.6837V21.8119C39.0552 21.9636 38.1642 22.0394 37.349 22.0394C35.8892 22.0394 34.7896 21.6792 34.0502 20.9588C33.3108 20.2383 32.9411 19.2809 32.9411 18.0865V9.15701H30.922V6.08572H32.9411V3.0713L36.5527 1.16596V6.08572H40.079V9.15701Z" fill="black"/>
<path d="M50.8001 13.9346C50.8001 13.1952 50.7148 12.4843 50.5441 11.8017C50.3735 11.1003 50.1365 10.522 49.8332 10.067C49.5299 9.61202 49.1791 9.28972 48.781 9.10014C48.3829 8.89159 48.0037 8.78732 47.6435 8.78732C47.2833 8.78732 46.9041 8.89159 46.506 9.10014C46.1079 9.28972 45.7476 9.61202 45.4253 10.067C45.141 10.522 44.9135 11.1003 44.7428 11.8017C44.5722 12.4843 44.4869 13.1952 44.4869 13.9346C44.4869 14.655 44.5722 15.3565 44.7428 16.039C44.9135 16.7025 45.141 17.2713 45.4253 17.7453C45.7476 18.2003 46.1079 18.5226 46.506 18.7122C46.9041 18.9017 47.2833 18.9965 47.6435 18.9965C48.0037 18.9965 48.3829 18.9017 48.781 18.7122C49.1791 18.5226 49.5299 18.2003 49.8332 17.7453C50.1365 17.2713 50.3735 16.7025 50.5441 16.039C50.7148 15.3565 50.8001 14.655 50.8001 13.9346ZM54.5254 13.9346C54.5254 15.0152 54.3643 16.0674 54.042 17.0912C53.7386 18.096 53.2931 18.9681 52.7054 19.7075C52.0798 20.4658 51.3214 21.0441 50.4304 21.4422C49.5393 21.8403 48.6104 22.0394 47.6435 22.0394C46.6766 22.0394 45.7476 21.8403 44.8566 21.4422C43.9655 21.0441 43.2072 20.4658 42.5816 19.7075C41.9938 18.9681 41.5388 18.096 41.2165 17.0912C40.9132 16.0674 40.7615 15.0152 40.7615 13.9346C40.7615 12.835 40.9132 11.7828 41.2165 10.778C41.5388 9.75421 41.9938 8.87263 42.5816 8.13325C43.2072 7.35594 43.9655 6.76823 44.8566 6.3701C45.7476 5.95301 46.6766 5.74446 47.6435 5.74446C48.6104 5.74446 49.5393 5.95301 50.4304 6.3701C51.3214 6.76823 52.0798 7.35594 52.7054 8.13325C53.2931 8.87263 53.7386 9.75421 54.042 10.778C54.3643 11.7828 54.5254 12.835 54.5254 13.9346Z" fill="black"/>
<path d="M68.3463 21.6981H64.7346V12.0292C64.7346 10.9865 64.5261 10.1523 64.109 9.52671C63.8246 9.14753 63.3601 8.95795 62.7155 8.95795C62.1657 8.95795 61.6159 9.27076 61.0661 9.8964C60.5163 10.522 60.1087 11.4984 59.8433 12.8255C59.7675 13.1478 59.7106 13.4701 59.6727 13.7924C59.6537 14.1147 59.6442 14.4939 59.6442 14.9299V21.6981H56.0611V6.08572H59.6442V7.39386C60.0045 6.90094 60.4974 6.50281 61.123 6.19947C61.7487 5.89613 62.3269 5.74446 62.8577 5.74446C64.6019 5.74446 65.948 6.21843 66.8959 7.16636C67.8628 8.15221 68.3463 9.56462 68.3463 11.4036V21.6981Z" fill="black"/>
<path d="M12.5506 23.8133V30.0393H11.272V23.8133H12.5506ZM14.4663 23.8133V24.8182H9.38626V23.8133H14.4663ZM16.9678 28.9959V26.9348C16.9678 26.7866 16.9436 26.6598 16.8951 26.5543C16.8466 26.4459 16.7711 26.3619 16.6685 26.302C16.5687 26.2421 16.439 26.2122 16.2794 26.2122C16.1425 26.2122 16.0242 26.2364 15.9244 26.2849C15.8247 26.3305 15.7477 26.3975 15.6935 26.4859C15.6394 26.5714 15.6123 26.6726 15.6123 26.7895H14.3808C14.3808 26.5928 14.4264 26.406 14.5176 26.2293C14.6088 26.0525 14.7414 25.8972 14.9153 25.7632C15.0892 25.6264 15.2958 25.5195 15.5353 25.4425C15.7776 25.3655 16.0484 25.327 16.3478 25.327C16.707 25.327 17.0262 25.3869 17.3056 25.5066C17.585 25.6264 17.8045 25.806 17.9641 26.0454C18.1266 26.2849 18.2079 26.5842 18.2079 26.9434V28.9232C18.2079 29.177 18.2236 29.3851 18.2549 29.5476C18.2863 29.7072 18.3319 29.8469 18.3918 29.9666V30.0393H17.1474C17.0875 29.9139 17.0419 29.7571 17.0106 29.5689C16.9821 29.3779 16.9678 29.1869 16.9678 28.9959ZM17.1303 27.2213L17.1388 27.9184H16.4504C16.2879 27.9184 16.1468 27.9369 16.0271 27.9739C15.9073 28.011 15.809 28.0637 15.732 28.1322C15.655 28.1977 15.598 28.2747 15.561 28.3631C15.5268 28.4514 15.5097 28.5484 15.5097 28.6538C15.5097 28.7593 15.5339 28.8548 15.5823 28.9403C15.6308 29.023 15.7007 29.0886 15.7919 29.137C15.8831 29.1827 15.99 29.2055 16.1126 29.2055C16.2979 29.2055 16.4589 29.1684 16.5958 29.0943C16.7326 29.0202 16.8381 28.9289 16.9122 28.8206C16.9892 28.7123 17.0291 28.6097 17.0319 28.5127L17.3569 29.0344C17.3113 29.1513 17.2486 29.2725 17.1688 29.3979C17.0918 29.5233 16.9935 29.6416 16.8737 29.7528C16.754 29.8611 16.61 29.9509 16.4418 30.0222C16.2736 30.0906 16.0741 30.1248 15.8432 30.1248C15.5496 30.1248 15.283 30.0664 15.0436 29.9495C14.8069 29.8298 14.6188 29.6659 14.4791 29.4578C14.3423 29.2468 14.2739 29.0073 14.2739 28.7394C14.2739 28.4971 14.3195 28.2818 14.4107 28.0937C14.5019 27.9055 14.6359 27.7473 14.8126 27.619C14.9922 27.4879 15.216 27.3895 15.484 27.324C15.752 27.2556 16.0627 27.2213 16.4162 27.2213H17.1303ZM15.7577 24.7882L16.5958 23.4712H17.9342L16.7583 24.7882H15.7577ZM20.1492 25.4126L20.9147 26.8194L21.7015 25.4126H23.0142L21.7057 27.6746L23.0741 30.0393H21.7571L20.9232 28.5512L20.0894 30.0393H18.7723L20.1407 27.6746L18.8322 25.4126H20.1492ZM24.9128 25.4126V30.0393H23.677V25.4126H24.9128ZM23.6001 24.2067C23.6001 24.0271 23.6628 23.8789 23.7882 23.762C23.9136 23.6451 24.0818 23.5867 24.2928 23.5867C24.5009 23.5867 24.6677 23.6451 24.7931 23.762C24.9214 23.8789 24.9855 24.0271 24.9855 24.2067C24.9855 24.3863 24.9214 24.5345 24.7931 24.6514C24.6677 24.7683 24.5009 24.8267 24.2928 24.8267C24.0818 24.8267 23.9136 24.7683 23.7882 24.6514C23.6628 24.5345 23.6001 24.3863 23.6001 24.2067ZM29.3429 26.4217V30.0393H28.1114V25.4126H29.2702L29.3429 26.4217ZM30.7369 25.3826L30.7155 26.5243C30.6556 26.5158 30.5829 26.5087 30.4974 26.503C30.4148 26.4944 30.3392 26.4901 30.2708 26.4901C30.0969 26.4901 29.9458 26.5129 29.8175 26.5586C29.6921 26.6013 29.5866 26.6655 29.5011 26.751C29.4184 26.8365 29.3557 26.9406 29.3129 27.0631C29.273 27.1857 29.2502 27.3254 29.2445 27.4822L28.9965 27.4052C28.9965 27.1059 29.0264 26.8308 29.0863 26.5799C29.1462 26.3262 29.2331 26.1053 29.3472 25.9171C29.464 25.729 29.6066 25.5836 29.7748 25.481C29.943 25.3783 30.1354 25.327 30.352 25.327C30.4205 25.327 30.4903 25.3327 30.5616 25.3441C30.6328 25.3527 30.6913 25.3655 30.7369 25.3826ZM33.3624 30.1248C33.0032 30.1248 32.6811 30.0678 32.396 29.9538C32.1109 29.8369 31.8686 29.6758 31.6691 29.4706C31.4724 29.2653 31.3213 29.0273 31.2158 28.7565C31.1103 28.4828 31.0576 28.192 31.0576 27.8841V27.7131C31.0576 27.3625 31.1075 27.0418 31.2073 26.751C31.307 26.4602 31.4496 26.2079 31.6349 25.9941C31.823 25.7803 32.0511 25.6164 32.319 25.5024C32.587 25.3855 32.8892 25.327 33.2256 25.327C33.5534 25.327 33.8442 25.3812 34.0979 25.4895C34.3516 25.5979 34.564 25.7518 34.7351 25.9513C34.9089 26.1509 35.0401 26.3904 35.1285 26.6697C35.2168 26.9463 35.261 27.2541 35.261 27.5934V28.1065H31.5836V27.2855H34.0509V27.1914C34.0509 27.0204 34.0195 26.8679 33.9568 26.7339C33.8969 26.597 33.8057 26.4887 33.6831 26.4089C33.5605 26.3291 33.4038 26.2892 33.2128 26.2892C33.0503 26.2892 32.9106 26.3248 32.7937 26.3961C32.6768 26.4673 32.5813 26.5671 32.5072 26.6954C32.4359 26.8237 32.3818 26.9748 32.3447 27.1487C32.3105 27.3197 32.2934 27.5078 32.2934 27.7131V27.8841C32.2934 28.0694 32.319 28.2405 32.3704 28.3973C32.4245 28.5541 32.5001 28.6895 32.597 28.8035C32.6968 28.9175 32.8165 29.0059 32.9562 29.0686C33.0987 29.1313 33.2598 29.1627 33.4394 29.1627C33.6617 29.1627 33.8684 29.1199 34.0594 29.0344C34.2533 28.946 34.42 28.8135 34.5597 28.6367L35.1584 29.2867C35.0615 29.4264 34.9289 29.5604 34.7607 29.6887C34.5954 29.8169 34.3958 29.9224 34.1621 30.0051C33.9283 30.0849 33.6617 30.1248 33.3624 30.1248ZM37.8737 29.1627C38.0248 29.1627 38.1588 29.1342 38.2757 29.0772C38.3926 29.0173 38.4838 28.9346 38.5493 28.8292C38.6178 28.7208 38.6534 28.594 38.6562 28.4486H39.8151C39.8122 28.7736 39.7253 29.0629 39.5542 29.3166C39.3832 29.5675 39.1537 29.7656 38.8658 29.911C38.5779 30.0536 38.2557 30.1248 37.8994 30.1248C37.5402 30.1248 37.2266 30.065 36.9586 29.9452C36.6935 29.8255 36.4726 29.6602 36.2958 29.4492C36.1191 29.2354 35.9865 28.9874 35.8982 28.7052C35.8098 28.4201 35.7656 28.1151 35.7656 27.7901V27.6661C35.7656 27.3382 35.8098 27.0332 35.8982 26.751C35.9865 26.4659 36.1191 26.2179 36.2958 26.0069C36.4726 25.7931 36.6935 25.6264 36.9586 25.5066C37.2237 25.3869 37.5345 25.327 37.8908 25.327C38.27 25.327 38.6021 25.3997 38.8872 25.5451C39.1751 25.6905 39.4003 25.8986 39.5628 26.1694C39.7281 26.4374 39.8122 26.7553 39.8151 27.123H38.6562C38.6534 26.9691 38.6206 26.8294 38.5579 26.7039C38.498 26.5785 38.4097 26.4787 38.2928 26.4046C38.1787 26.3276 38.0376 26.2892 37.8694 26.2892C37.6898 26.2892 37.543 26.3276 37.429 26.4046C37.315 26.4787 37.2266 26.5814 37.1639 26.7125C37.1012 26.8408 37.057 26.9876 37.0313 27.1529C37.0085 27.3154 36.9971 27.4865 36.9971 27.6661V27.7901C36.9971 27.9697 37.0085 28.1421 37.0313 28.3075C37.0541 28.4728 37.0969 28.6196 37.1596 28.7479C37.2252 28.8762 37.315 28.9774 37.429 29.0515C37.543 29.1256 37.6913 29.1627 37.8737 29.1627ZM42.6587 30.1248C42.2995 30.1248 41.9774 30.0678 41.6923 29.9538C41.4072 29.8369 41.1649 29.6758 40.9653 29.4706C40.7686 29.2653 40.6176 29.0273 40.5121 28.7565C40.4066 28.4828 40.3539 28.192 40.3539 27.8841V27.7131C40.3539 27.3625 40.4038 27.0418 40.5035 26.751C40.6033 26.4602 40.7458 26.2079 40.9311 25.9941C41.1193 25.7803 41.3473 25.6164 41.6153 25.5024C41.8833 25.3855 42.1855 25.327 42.5219 25.327C42.8497 25.327 43.1405 25.3812 43.3942 25.4895C43.6479 25.5979 43.8603 25.7518 44.0313 25.9513C44.2052 26.1509 44.3363 26.3904 44.4247 26.6697C44.5131 26.9463 44.5573 27.2541 44.5573 27.5934V28.1065H40.8798V27.2855H43.3471V27.1914C43.3471 27.0204 43.3158 26.8679 43.2531 26.7339C43.1932 26.597 43.102 26.4887 42.9794 26.4089C42.8568 26.3291 42.7 26.2892 42.509 26.2892C42.3465 26.2892 42.2068 26.3248 42.09 26.3961C41.9731 26.4673 41.8776 26.5671 41.8035 26.6954C41.7322 26.8237 41.678 26.9748 41.641 27.1487C41.6068 27.3197 41.5897 27.5078 41.5897 27.7131V27.8841C41.5897 28.0694 41.6153 28.2405 41.6666 28.3973C41.7208 28.5541 41.7963 28.6895 41.8933 28.8035C41.993 28.9175 42.1128 29.0059 42.2525 29.0686C42.395 29.1313 42.5561 29.1627 42.7357 29.1627C42.958 29.1627 43.1647 29.1199 43.3557 29.0344C43.5495 28.946 43.7163 28.8135 43.856 28.6367L44.4547 29.2867C44.3577 29.4264 44.2252 29.5604 44.057 29.6887C43.8916 29.8169 43.6921 29.9224 43.4583 30.0051C43.2246 30.0849 42.958 30.1248 42.6587 30.1248ZM46.4901 26.302V31.8182H45.2586V25.4126H46.4003L46.4901 26.302ZM49.4192 27.6746V27.7644C49.4192 28.1008 49.3793 28.413 49.2995 28.7009C49.2225 28.9888 49.1085 29.2397 48.9574 29.4535C48.8063 29.6644 48.6182 29.8298 48.393 29.9495C48.1706 30.0664 47.914 30.1248 47.6233 30.1248C47.341 30.1248 47.0959 30.0678 46.8878 29.9538C46.6797 29.8398 46.5043 29.6801 46.3618 29.4749C46.2221 29.2668 46.1095 29.0259 46.024 28.7522C45.9385 28.4785 45.8729 28.1849 45.8273 27.8713V27.6361C45.8729 27.2997 45.9385 26.9919 46.024 26.7125C46.1095 26.4303 46.2221 26.1865 46.3618 25.9813C46.5043 25.7732 46.6782 25.6121 46.8835 25.4981C47.0916 25.384 47.3353 25.327 47.6147 25.327C47.9083 25.327 48.1663 25.3826 48.3887 25.4938C48.6139 25.605 48.802 25.7646 48.9531 25.9727C49.1071 26.1808 49.2225 26.4288 49.2995 26.7168C49.3793 27.0047 49.4192 27.324 49.4192 27.6746ZM48.1834 27.7644V27.6746C48.1834 27.4779 48.1663 27.2969 48.1321 27.1316C48.1008 26.9634 48.0494 26.8165 47.9782 26.6911C47.9098 26.5657 47.8185 26.4688 47.7045 26.4003C47.5933 26.3291 47.4579 26.2934 47.2983 26.2934C47.1301 26.2934 46.9861 26.3205 46.8664 26.3747C46.7495 26.4288 46.654 26.5072 46.5799 26.6099C46.5058 26.7125 46.4502 26.8351 46.4131 26.9776C46.3761 27.1201 46.3532 27.2812 46.3447 27.4608V28.0552C46.359 28.2661 46.3989 28.4557 46.4644 28.6239C46.53 28.7893 46.6312 28.9204 46.768 29.0173C46.9049 29.1142 47.0845 29.1627 47.3068 29.1627C47.4693 29.1627 47.6062 29.1271 47.7173 29.0558C47.8285 28.9817 47.9183 28.8805 47.9867 28.7522C48.058 28.6239 48.1079 28.4757 48.1364 28.3075C48.1677 28.1393 48.1834 27.9583 48.1834 27.7644ZM52.451 25.4126V26.2849H49.757V25.4126H52.451ZM50.4241 24.2708H51.6556V28.6453C51.6556 28.7793 51.6727 28.8819 51.7069 28.9532C51.744 29.0244 51.7982 29.0743 51.8694 29.1028C51.9407 29.1285 52.0305 29.1413 52.1388 29.1413C52.2158 29.1413 52.2842 29.1385 52.3441 29.1328C52.4068 29.1242 52.4595 29.1157 52.5023 29.1071L52.5066 30.0136C52.4011 30.0479 52.2871 30.0749 52.1645 30.0949C52.0419 30.1149 51.9065 30.1248 51.7583 30.1248C51.4874 30.1248 51.2508 30.0806 51.0484 29.9923C50.8489 29.901 50.6949 29.7557 50.5866 29.5561C50.4783 29.3566 50.4241 29.0943 50.4241 28.7693V24.2708ZM54.4522 25.4126V30.0393H53.2164V25.4126H54.4522ZM53.1394 24.2067C53.1394 24.0271 53.2022 23.8789 53.3276 23.762C53.453 23.6451 53.6212 23.5867 53.8322 23.5867C54.0403 23.5867 54.207 23.6451 54.3325 23.762C54.4608 23.8789 54.5249 24.0271 54.5249 24.2067C54.5249 24.3863 54.4608 24.5345 54.3325 24.6514C54.207 24.7683 54.0403 24.8267 53.8322 24.8267C53.6212 24.8267 53.453 24.7683 53.3276 24.6514C53.2022 24.5345 53.1394 24.3863 53.1394 24.2067ZM57.0435 29.1413L58.0698 25.4126H59.3569L57.7961 30.0393H57.0179L57.0435 29.1413ZM56.338 25.4126L57.3685 29.1456L57.3899 30.0393H56.6074L55.0466 25.4126H56.338ZM59.6434 27.773V27.6832C59.6434 27.3439 59.6919 27.0318 59.7888 26.7467C59.8857 26.4588 60.0268 26.2093 60.2121 25.9984C60.3974 25.7874 60.6255 25.6235 60.8963 25.5066C61.1671 25.3869 61.4779 25.327 61.8285 25.327C62.1791 25.327 62.4913 25.3869 62.765 25.5066C63.0386 25.6235 63.2681 25.7874 63.4534 25.9984C63.6416 26.2093 63.7841 26.4588 63.881 26.7467C63.978 27.0318 64.0264 27.3439 64.0264 27.6832V27.773C64.0264 28.1094 63.978 28.4215 63.881 28.7094C63.7841 28.9945 63.6416 29.2439 63.4534 29.4578C63.2681 29.6687 63.0401 29.8326 62.7692 29.9495C62.4984 30.0664 62.1877 30.1248 61.8371 30.1248C61.4864 30.1248 61.1743 30.0664 60.9006 29.9495C60.6298 29.8326 60.4003 29.6687 60.2121 29.4578C60.0268 29.2439 59.8857 28.9945 59.7888 28.7094C59.6919 28.4215 59.6434 28.1094 59.6434 27.773ZM60.8749 27.6832V27.773C60.8749 27.9668 60.892 28.1478 60.9262 28.316C60.9604 28.4842 61.0146 28.6325 61.0887 28.7607C61.1657 28.8862 61.2655 28.9845 61.3881 29.0558C61.5106 29.1271 61.6603 29.1627 61.8371 29.1627C62.0081 29.1627 62.1549 29.1271 62.2775 29.0558C62.4001 28.9845 62.4984 28.8862 62.5725 28.7607C62.6467 28.6325 62.7008 28.4842 62.735 28.316C62.7721 28.1478 62.7906 27.9668 62.7906 27.773V27.6832C62.7906 27.495 62.7721 27.3183 62.735 27.1529C62.7008 26.9847 62.6452 26.8365 62.5683 26.7082C62.4941 26.5771 62.3958 26.4745 62.2732 26.4003C62.1506 26.3262 62.0024 26.2892 61.8285 26.2892C61.6546 26.2892 61.5064 26.3262 61.3838 26.4003C61.2641 26.4745 61.1657 26.5771 61.0887 26.7082C61.0146 26.8365 60.9604 26.9847 60.9262 27.1529C60.892 27.3183 60.8749 27.495 60.8749 27.6832ZM69.0936 30.1248C68.7344 30.1248 68.4123 30.0678 68.1272 29.9538C67.8421 29.8369 67.5998 29.6758 67.4003 29.4706C67.2036 29.2653 67.0525 29.0273 66.947 28.7565C66.8415 28.4828 66.7888 28.192 66.7888 27.8841V27.7131C66.7888 27.3625 66.8387 27.0418 66.9385 26.751C67.0382 26.4602 67.1808 26.2079 67.3661 25.9941C67.5542 25.7803 67.7823 25.6164 68.0502 25.5024C68.3182 25.3855 68.6204 25.327 68.9568 25.327C69.2846 25.327 69.5754 25.3812 69.8291 25.4895C70.0828 25.5979 70.2952 25.7518 70.4662 25.9513C70.6401 26.1509 70.7713 26.3904 70.8596 26.6697C70.948 26.9463 70.9922 27.2541 70.9922 27.5934V28.1065H67.3147V27.2855H69.7821V27.1914C69.7821 27.0204 69.7507 26.8679 69.688 26.7339C69.6281 26.597 69.5369 26.4887 69.4143 26.4089C69.2917 26.3291 69.1349 26.2892 68.9439 26.2892C68.7815 26.2892 68.6418 26.3248 68.5249 26.3961C68.408 26.4673 68.3125 26.5671 68.2384 26.6954C68.1671 26.8237 68.113 26.9748 68.0759 27.1487C68.0417 27.3197 68.0246 27.5078 68.0246 27.7131V27.8841C68.0246 28.0694 68.0502 28.2405 68.1016 28.3973C68.1557 28.5541 68.2313 28.6895 68.3282 28.8035C68.428 28.9175 68.5477 29.0059 68.6874 29.0686C68.8299 29.1313 68.991 29.1627 69.1706 29.1627C69.3929 29.1627 69.5996 29.1199 69.7906 29.0344C69.9845 28.946 70.1512 28.8135 70.2909 28.6367L70.8896 29.2867C70.7927 29.4264 70.6601 29.5604 70.4919 29.6887C70.3266 29.8169 70.127 29.9224 69.8932 30.0051C69.6595 30.0849 69.3929 30.1248 69.0936 30.1248ZM76.1406 25.4126V26.2849H73.4467V25.4126H76.1406ZM74.1138 24.2708H75.3453V28.6453C75.3453 28.7793 75.3624 28.8819 75.3966 28.9532C75.4337 29.0244 75.4878 29.0743 75.5591 29.1028C75.6304 29.1285 75.7202 29.1413 75.8285 29.1413C75.9055 29.1413 75.9739 29.1385 76.0337 29.1328C76.0965 29.1242 76.1492 29.1157 76.192 29.1071L76.1962 30.0136C76.0908 30.0479 75.9767 30.0749 75.8541 30.0949C75.7316 30.1149 75.5962 30.1248 75.4479 30.1248C75.1771 30.1248 74.9405 30.0806 74.7381 29.9923C74.5385 29.901 74.3846 29.7557 74.2763 29.5561C74.1679 29.3566 74.1138 29.0943 74.1138 28.7693V24.2708ZM78.0735 26.4217V30.0393H76.8419V25.4126H78.0008L78.0735 26.4217ZM79.4675 25.3826L79.4461 26.5243C79.3862 26.5158 79.3135 26.5087 79.228 26.503C79.1453 26.4944 79.0698 26.4901 79.0014 26.4901C78.8275 26.4901 78.6764 26.5129 78.5481 26.5586C78.4227 26.6013 78.3172 26.6655 78.2317 26.751C78.149 26.8365 78.0863 26.9406 78.0435 27.0631C78.0036 27.1857 77.9808 27.3254 77.9751 27.4822L77.7271 27.4052C77.7271 27.1059 77.757 26.8308 77.8169 26.5799C77.8768 26.3262 77.9637 26.1053 78.0777 25.9171C78.1946 25.729 78.3371 25.5836 78.5053 25.481C78.6735 25.3783 78.866 25.327 79.0826 25.327C79.151 25.327 79.2209 25.3327 79.2921 25.3441C79.3634 25.3527 79.4219 25.3655 79.4675 25.3826ZM82.4009 28.9959V26.9348C82.4009 26.7866 82.3766 26.6598 82.3282 26.5543C82.2797 26.4459 82.2042 26.3619 82.1015 26.302C82.0018 26.2421 81.8721 26.2122 81.7124 26.2122C81.5756 26.2122 81.4573 26.2364 81.3575 26.2849C81.2577 26.3305 81.1808 26.3975 81.1266 26.4859C81.0724 26.5714 81.0453 26.6726 81.0453 26.7895H79.8138C79.8138 26.5928 79.8594 26.406 79.9507 26.2293C80.0419 26.0525 80.1744 25.8972 80.3483 25.7632C80.5222 25.6264 80.7289 25.5195 80.9684 25.4425C81.2107 25.3655 81.4815 25.327 81.7808 25.327C82.14 25.327 82.4593 25.3869 82.7387 25.5066C83.0181 25.6264 83.2376 25.806 83.3972 26.0454C83.5597 26.2849 83.6409 26.5842 83.6409 26.9434V28.9232C83.6409 29.177 83.6566 29.3851 83.688 29.5476C83.7193 29.7072 83.765 29.8469 83.8248 29.9666V30.0393H82.5805C82.5206 29.9139 82.475 29.7571 82.4436 29.5689C82.4151 29.3779 82.4009 29.1869 82.4009 28.9959ZM82.5634 27.2213L82.5719 27.9184H81.8835C81.721 27.9184 81.5799 27.9369 81.4601 27.9739C81.3404 28.011 81.242 28.0637 81.1651 28.1322C81.0881 28.1977 81.0311 28.2747 80.994 28.3631C80.9598 28.4514 80.9427 28.5484 80.9427 28.6538C80.9427 28.7593 80.9669 28.8548 81.0154 28.9403C81.0639 29.023 81.1337 29.0886 81.2249 29.137C81.3162 29.1827 81.4231 29.2055 81.5456 29.2055C81.7309 29.2055 81.892 29.1684 82.0289 29.0943C82.1657 29.0202 82.2712 28.9289 82.3453 28.8206C82.4223 28.7123 82.4622 28.6097 82.465 28.5127L82.79 29.0344C82.7444 29.1513 82.6817 29.2725 82.6018 29.3979C82.5249 29.5233 82.4265 29.6416 82.3068 29.7528C82.1871 29.8611 82.0431 29.9509 81.8749 30.0222C81.7067 30.0906 81.5072 30.1248 81.2763 30.1248C80.9826 30.1248 80.7161 30.0664 80.4766 29.9495C80.24 29.8298 80.0519 29.6659 79.9122 29.4578C79.7753 29.2468 79.7069 29.0073 79.7069 28.7394C79.7069 28.4971 79.7525 28.2818 79.8438 28.0937C79.935 27.9055 80.069 27.7473 80.2457 27.619C80.4253 27.4879 80.6491 27.3895 80.9171 27.324C81.185 27.2556 81.4958 27.2213 81.8493 27.2213H82.5634ZM85.7961 26.4003V30.0393H84.5646V25.4126H85.7191L85.7961 26.4003ZM85.6165 27.5634H85.283C85.283 27.2213 85.3272 26.9135 85.4155 26.6398C85.5039 26.3633 85.6279 26.1281 85.7876 25.9342C85.9472 25.7375 86.1368 25.5879 86.3563 25.4852C86.5786 25.3798 86.8267 25.327 87.1003 25.327C87.317 25.327 87.5151 25.3584 87.6947 25.4211C87.8743 25.4838 88.0282 25.5836 88.1565 25.7204C88.2877 25.8573 88.3874 26.0383 88.4559 26.2635C88.5271 26.4887 88.5628 26.7638 88.5628 27.0888V30.0393H87.3227V27.0845C87.3227 26.8793 87.2942 26.7196 87.2372 26.6056C87.1801 26.4916 87.096 26.4117 86.9849 26.3661C86.8765 26.3177 86.7426 26.2934 86.5829 26.2934C86.4176 26.2934 86.2736 26.3262 86.151 26.3918C86.0313 26.4573 85.9315 26.5486 85.8517 26.6655C85.7747 26.7795 85.7163 26.9135 85.6764 27.0674C85.6365 27.2213 85.6165 27.3867 85.6165 27.5634ZM92.0007 28.7607C92.0007 28.6724 91.9751 28.5926 91.9238 28.5213C91.8725 28.45 91.777 28.3845 91.6373 28.3246C91.5004 28.2619 91.3023 28.2049 91.0429 28.1535C90.8091 28.1022 90.5911 28.0381 90.3887 27.9611C90.1891 27.8813 90.0152 27.7858 89.867 27.6746C89.7216 27.5634 89.6075 27.4323 89.5249 27.2812C89.4422 27.1273 89.4009 26.952 89.4009 26.7553C89.4009 26.5614 89.4422 26.379 89.5249 26.2079C89.6104 26.0369 89.7316 25.8858 89.8883 25.7546C90.048 25.6207 90.2418 25.5166 90.4699 25.4425C90.7008 25.3655 90.9602 25.327 91.2481 25.327C91.6501 25.327 91.995 25.3912 92.283 25.5195C92.5737 25.6477 92.7961 25.8245 92.95 26.0497C93.1068 26.2721 93.1852 26.5258 93.1852 26.8108H91.9537C91.9537 26.6911 91.9281 26.5842 91.8767 26.4901C91.8283 26.3932 91.7513 26.3177 91.6458 26.2635C91.5432 26.2065 91.4092 26.178 91.2439 26.178C91.107 26.178 90.9887 26.2022 90.889 26.2507C90.7892 26.2963 90.7122 26.359 90.658 26.4388C90.6067 26.5158 90.5811 26.6013 90.5811 26.6954C90.5811 26.7667 90.5953 26.8308 90.6238 26.8878C90.6552 26.942 90.7051 26.9919 90.7735 27.0375C90.8419 27.0831 90.9303 27.1258 91.0386 27.1658C91.1498 27.2028 91.2866 27.237 91.4491 27.2684C91.7827 27.3368 92.0806 27.4266 92.3428 27.5378C92.6051 27.6461 92.8132 27.7943 92.9671 27.9825C93.1211 28.1678 93.1981 28.4115 93.1981 28.7137C93.1981 28.919 93.1524 29.1071 93.0612 29.2782C92.97 29.4492 92.8389 29.5989 92.6678 29.7272C92.4968 29.8526 92.2915 29.9509 92.0521 30.0222C91.8154 30.0906 91.5489 30.1248 91.2524 30.1248C90.822 30.1248 90.4571 30.0479 90.1577 29.8939C89.8613 29.74 89.6361 29.5447 89.4821 29.3081C89.331 29.0686 89.2555 28.8235 89.2555 28.5726H90.4229C90.4286 28.7408 90.4713 28.8762 90.5511 28.9788C90.6338 29.0815 90.7379 29.1556 90.8633 29.2012C90.9916 29.2468 91.1298 29.2696 91.2781 29.2696C91.4377 29.2696 91.5703 29.2482 91.6758 29.2055C91.7812 29.1599 91.8611 29.1 91.9152 29.0259C91.9722 28.9489 92.0007 28.8605 92.0007 28.7607ZM95.2976 23.4712V30.0393H94.0618V23.4712H95.2976ZM98.8126 28.9959V26.9348C98.8126 26.7866 98.7884 26.6598 98.7399 26.5543C98.6914 26.4459 98.6159 26.3619 98.5133 26.302C98.4135 26.2421 98.2838 26.2122 98.1241 26.2122C97.9873 26.2122 97.869 26.2364 97.7692 26.2849C97.6694 26.3305 97.5925 26.3975 97.5383 26.4859C97.4841 26.5714 97.4571 26.6726 97.4571 26.7895H96.2255C96.2255 26.5928 96.2712 26.406 96.3624 26.2293C96.4536 26.0525 96.5862 25.8972 96.7601 25.7632C96.934 25.6264 97.1406 25.5195 97.3801 25.4425C97.6224 25.3655 97.8932 25.327 98.1926 25.327C98.5517 25.327 98.871 25.3869 99.1504 25.5066C99.4298 25.6264 99.6493 25.806 99.8089 26.0454C99.9714 26.2849 100.053 26.5842 100.053 26.9434V28.9232C100.053 29.177 100.068 29.3851 100.1 29.5476C100.131 29.7072 100.177 29.8469 100.237 29.9666V30.0393H98.9922C98.9323 29.9139 98.8867 29.7571 98.8554 29.5689C98.8268 29.3779 98.8126 29.1869 98.8126 28.9959ZM98.9751 27.2213L98.9836 27.9184H98.2952C98.1327 27.9184 97.9916 27.9369 97.8718 27.9739C97.7521 28.011 97.6538 28.0637 97.5768 28.1322C97.4998 28.1977 97.4428 28.2747 97.4058 28.3631C97.3715 28.4514 97.3544 28.5484 97.3544 28.6538C97.3544 28.7593 97.3787 28.8548 97.4271 28.9403C97.4756 29.023 97.5454 29.0886 97.6367 29.137C97.7279 29.1827 97.8348 29.2055 97.9574 29.2055C98.1427 29.2055 98.3037 29.1684 98.4406 29.0943C98.5774 29.0202 98.6829 28.9289 98.757 28.8206C98.834 28.7123 98.8739 28.6097 98.8767 28.5127L99.2017 29.0344C99.1561 29.1513 99.0934 29.2725 99.0136 29.3979C98.9366 29.5233 98.8382 29.6416 98.7185 29.7528C98.5988 29.8611 98.4548 29.9509 98.2866 30.0222C98.1184 30.0906 97.9189 30.1248 97.688 30.1248C97.3943 30.1248 97.1278 30.0664 96.8883 29.9495C96.6517 29.8298 96.4636 29.6659 96.3239 29.4578C96.1871 29.2468 96.1186 29.0073 96.1186 28.7394C96.1186 28.4971 96.1643 28.2818 96.2555 28.0937C96.3467 27.9055 96.4807 27.7473 96.6574 27.619C96.837 27.4879 97.0608 27.3895 97.3288 27.324C97.5968 27.2556 97.9075 27.2213 98.261 27.2213H98.9751ZM103.734 29.0301V23.4712H104.974V30.0393H103.858L103.734 29.0301ZM100.81 27.7815V27.6917C100.81 27.3382 100.849 27.0175 100.929 26.7296C101.009 26.4388 101.126 26.1894 101.28 25.9813C101.434 25.7732 101.623 25.6121 101.849 25.4981C102.074 25.384 102.33 25.327 102.618 25.327C102.889 25.327 103.126 25.384 103.328 25.4981C103.533 25.6121 103.707 25.7746 103.85 25.9856C103.995 26.1937 104.112 26.4402 104.2 26.7253C104.289 27.0075 104.353 27.3168 104.393 27.6532V27.8499C104.353 28.1721 104.289 28.4714 104.2 28.7479C104.112 29.0244 103.995 29.2668 103.85 29.4749C103.707 29.6801 103.533 29.8398 103.328 29.9538C103.123 30.0678 102.883 30.1248 102.61 30.1248C102.322 30.1248 102.065 30.0664 101.84 29.9495C101.618 29.8326 101.43 29.6687 101.276 29.4578C101.125 29.2468 101.009 28.9988 100.929 28.7137C100.849 28.4286 100.81 28.1179 100.81 27.7815ZM102.041 27.6917V27.7815C102.041 27.9725 102.055 28.1507 102.084 28.316C102.115 28.4814 102.165 28.6282 102.233 28.7565C102.305 28.8819 102.396 28.9803 102.507 29.0515C102.621 29.1199 102.759 29.1542 102.922 29.1542C103.133 29.1542 103.307 29.1071 103.444 29.013C103.58 28.9161 103.685 28.7836 103.756 28.6154C103.83 28.4472 103.873 28.2533 103.884 28.0338V27.4736C103.876 27.294 103.85 27.133 103.807 26.9904C103.767 26.8451 103.707 26.721 103.627 26.6184C103.551 26.5158 103.454 26.436 103.337 26.379C103.223 26.3219 103.087 26.2934 102.93 26.2934C102.771 26.2934 102.634 26.3305 102.52 26.4046C102.406 26.4759 102.313 26.5742 102.242 26.6997C102.174 26.8251 102.122 26.9733 102.088 27.1444C102.057 27.3126 102.041 27.495 102.041 27.6917ZM105.74 27.773V27.6832C105.74 27.3439 105.788 27.0318 105.885 26.7467C105.982 26.4588 106.123 26.2093 106.309 25.9984C106.494 25.7874 106.722 25.6235 106.993 25.5066C107.264 25.3869 107.574 25.327 107.925 25.327C108.276 25.327 108.588 25.3869 108.861 25.5066C109.135 25.6235 109.365 25.7874 109.55 25.9984C109.738 26.2093 109.881 26.4588 109.978 26.7467C110.074 27.0318 110.123 27.3439 110.123 27.6832V27.773C110.123 28.1094 110.074 28.4215 109.978 28.7094C109.881 28.9945 109.738 29.2439 109.55 29.4578C109.365 29.6687 109.137 29.8326 108.866 29.9495C108.595 30.0664 108.284 30.1248 107.934 30.1248C107.583 30.1248 107.271 30.0664 106.997 29.9495C106.726 29.8326 106.497 29.6687 106.309 29.4578C106.123 29.2439 105.982 28.9945 105.885 28.7094C105.788 28.4215 105.74 28.1094 105.74 27.773ZM106.971 27.6832V27.773C106.971 27.9668 106.989 28.1478 107.023 28.316C107.057 28.4842 107.111 28.6325 107.185 28.7607C107.262 28.8862 107.362 28.9845 107.485 29.0558C107.607 29.1271 107.757 29.1627 107.934 29.1627C108.105 29.1627 108.251 29.1271 108.374 29.0558C108.497 28.9845 108.595 28.8862 108.669 28.7607C108.743 28.6325 108.797 28.4842 108.832 28.316C108.869 28.1478 108.887 27.9668 108.887 27.773V27.6832C108.887 27.495 108.869 27.3183 108.832 27.1529C108.797 26.9847 108.742 26.8365 108.665 26.7082C108.591 26.5771 108.492 26.4745 108.37 26.4003C108.247 26.3262 108.099 26.2892 107.925 26.2892C107.751 26.2892 107.603 26.3262 107.48 26.4003C107.361 26.4745 107.262 26.5771 107.185 26.7082C107.111 26.8365 107.057 26.9847 107.023 27.1529C106.989 27.3183 106.971 27.495 106.971 27.6832Z" fill="black"/>
<path d="M83.9581 16.7534C83.9581 17.3411 83.8633 17.9667 83.6737 18.6303C83.5031 19.2749 83.2092 19.8436 82.7921 20.3366C82.3371 20.8864 81.5067 21.2466 80.7294 21.5878C79.9521 21.9291 77.3253 21.8201 76.093 21.8201C75.6759 21.8201 75.0191 21.877 74.5262 21.8201H72.7017V22.7324L70.1475 20.3366L72.7017 17.8909V18.9147H74.5262C75.0191 18.9905 75.7327 18.9147 76.093 18.9147C76.3963 18.9147 78.6781 18.8862 78.9246 18.8293C79.171 18.7535 79.4175 18.5924 79.664 18.3459C79.8346 18.1942 79.9768 17.9573 80.0905 17.635C80.2232 17.3127 80.2896 16.8671 80.2896 16.2984V0.14563H83.9581V16.7534Z" fill="black"/>
<path d="M95.6745 13.7153C95.6745 12.9759 95.5892 12.265 95.4186 11.5825C95.248 10.881 95.011 10.3028 94.7076 9.84776C94.4043 9.39276 94.0536 9.07046 93.6554 8.88087C93.2573 8.67233 92.8781 8.56805 92.5179 8.56805C92.1577 8.56805 91.7785 8.67233 91.3804 8.88087C90.9823 9.07046 90.622 9.39276 90.2998 9.84776C90.0154 10.3028 89.7879 10.881 89.6172 11.5825C89.4466 12.265 89.3613 12.9759 89.3613 13.7153C89.3613 14.4357 89.4466 15.1372 89.6172 15.8197C89.7879 16.4833 90.0154 17.052 90.2998 17.526C90.622 17.981 90.9823 18.3033 91.3804 18.4929C91.7785 18.6825 92.1577 18.7773 92.5179 18.7773C92.8781 18.7773 93.2573 18.6825 93.6554 18.4929C94.0536 18.3033 94.4043 17.981 94.7076 17.526C95.011 17.052 95.248 16.4833 95.4186 15.8197C95.5892 15.1372 95.6745 14.4357 95.6745 13.7153ZM99.3999 13.7153C99.3999 14.796 99.2387 15.8482 98.9164 16.8719C98.6131 17.8767 98.1676 18.7488 97.5799 19.4882C96.9542 20.2466 96.1959 20.8248 95.3048 21.2229C94.4138 21.6211 93.4848 21.8201 92.5179 21.8201C91.551 21.8201 90.622 21.6211 89.731 21.2229C88.8399 20.8248 88.0816 20.2466 87.456 19.4882C86.8682 18.7488 86.4132 17.8767 86.0909 16.8719C85.7876 15.8482 85.6359 14.796 85.6359 13.7153C85.6359 12.6157 85.7876 11.5635 86.0909 10.5587C86.4132 9.53495 86.8682 8.65337 87.456 7.91398C88.0816 7.13668 88.8399 6.54896 89.731 6.15083C90.622 5.73374 91.551 5.5252 92.5179 5.5252C93.4848 5.5252 94.4138 5.73374 95.3048 6.15083C96.1959 6.54896 96.9542 7.13668 97.5799 7.91398C98.1676 8.65337 98.6131 9.53495 98.9164 10.5587C99.2387 11.5635 99.3999 12.6157 99.3999 13.7153Z" fill="black"/>
<path d="M109.979 9.02306C109.088 9.02306 108.405 9.07994 107.931 9.19369C107.457 9.30744 107.012 9.48755 106.595 9.73401C106.159 9.98047 105.761 10.3122 105.4 10.7293C105.059 11.1464 104.832 11.6583 104.718 12.265C104.566 13.0423 104.49 13.9333 104.49 14.9382V21.4789H100.936V5.86645H104.49V7.65804C104.775 7.27887 105.135 6.93761 105.571 6.63428C106.595 5.91385 108.064 5.54416 109.979 5.5252V9.02306Z" fill="black"/>
<path d="M114.017 13.4309C114.017 14.1324 114.102 14.7675 114.273 15.3363C114.463 15.8861 114.699 16.398 114.984 16.8719C115.268 17.3269 115.581 17.6587 115.922 17.8673C116.264 18.0758 116.595 18.1801 116.918 18.1801C117.221 18.1801 117.543 18.0663 117.885 17.8388C118.226 17.6113 118.539 17.289 118.823 16.8719C119.126 16.4169 119.363 15.905 119.534 15.3363C119.705 14.7675 119.79 14.1324 119.79 13.4309C119.79 12.7105 119.705 12.0754 119.534 11.5256C119.382 10.9568 119.145 10.4355 118.823 9.96151C118.539 9.54442 118.216 9.22213 117.856 8.99462C117.515 8.74816 117.202 8.62493 116.918 8.62493C116.595 8.62493 116.264 8.73868 115.922 8.96619C115.581 9.17473 115.268 9.49703 114.984 9.93308C114.681 10.426 114.444 10.9568 114.273 11.5256C114.102 12.0754 114.017 12.7105 114.017 13.4309ZM123.402 19.0332C123.345 21.7064 122.719 23.5074 121.525 24.4364C120.235 25.4223 118.463 25.9152 116.207 25.9152C115.505 25.9152 114.709 25.8488 113.818 25.7161C112.927 25.6024 112.112 25.3559 111.372 24.9767V21.3082C112.434 21.9339 113.391 22.3225 114.244 22.4742C115.117 22.6448 115.828 22.7301 116.377 22.7301C117.382 22.7301 118.178 22.569 118.766 22.2467C119.354 21.9434 119.686 21.3746 119.761 20.5404C119.78 20.3319 119.79 20.0949 119.79 19.8295C119.619 20.0949 119.259 20.3793 118.709 20.6826C118.122 21.0049 117.42 21.1661 116.605 21.1661C115.695 21.1661 114.842 20.986 114.045 20.6257C113.249 20.2466 112.586 19.6873 112.055 18.9479C111.562 18.2843 111.154 17.4976 110.832 16.5876C110.51 15.6586 110.348 14.559 110.348 13.2888C110.348 12.246 110.472 11.3076 110.718 10.4734C110.984 9.63922 111.372 8.85243 111.884 8.11305C112.377 7.37366 113.05 6.75751 113.903 6.26458C114.756 5.77166 115.714 5.5252 116.775 5.5252C118.027 5.5252 119.041 6.00864 119.818 6.97553V5.86645H123.402V19.0332Z" fill="black"/>
<path d="M128.719 11.9522H134.151C134.151 11.0611 133.99 10.3028 133.668 9.67713C133.478 9.35484 133.213 9.0989 132.871 8.90931C132.549 8.70077 132.189 8.59649 131.791 8.59649C130.975 8.59649 130.246 9.0041 129.601 9.81932C129.165 10.3691 128.871 11.0801 128.719 11.9522ZM128.805 15.0235C128.862 15.2889 128.937 15.5638 129.032 15.8482C129.184 16.2842 129.421 16.7203 129.743 17.1563C130.084 17.5924 130.502 17.9715 130.994 18.2938C131.165 18.3886 131.421 18.4834 131.762 18.5782C132.104 18.673 132.521 18.7204 133.014 18.7204C133.582 18.7204 134.227 18.6256 134.947 18.436C135.668 18.2275 136.473 17.8578 137.365 17.3269V20.512C136.322 21.1187 135.326 21.5168 134.379 21.7064C133.431 21.877 132.473 21.9149 131.506 21.8201C130.672 21.7064 129.838 21.4504 129.004 21.0523C128.189 20.6352 127.525 20.1518 127.013 19.602C126.425 18.9005 125.932 18.0284 125.534 16.9857C125.136 15.943 124.937 14.7486 124.937 13.4025C124.937 12.265 125.079 11.2317 125.364 10.3028C125.667 9.35484 126.103 8.53962 126.672 7.85711C127.222 7.1746 127.923 6.61532 128.776 6.17927C129.648 5.74322 130.663 5.5252 131.819 5.5252C132.786 5.5252 133.687 5.73374 134.521 6.15083C135.355 6.56792 136.009 7.09876 136.483 7.74336C137.336 8.86191 137.763 10.7104 137.763 13.2888V15.0235H128.805Z" fill="black"/>
</svg>
